<?xml version="1.0" ?><svg height="512" id="svg2" version="1.1" width="512" xmlns="http://www.w3.org/2000/svg" xmlns:cc="http://creativecommons.org/ns#" xmlns:dc="http://purl.org/dc/elements/1.1/" xmlns:inkscape="http://www.inkscape.org/namespaces/inkscape" xmlns:rdf="http://www.w3.org/1999/02/22-rdf-syntax-ns#" xmlns:sodipodi="http://sodipodi.sourceforge.net/DTD/sodipodi-0.dtd" xmlns:svg="http://www.w3.org/2000/svg"><defs id="defs4"/><g id="layer1" transform="translate(0,-540.36218)"><path d="m 86.942864,634.54762 c -8.0206,0 -14.4482,6.5376 -14.4482,14.5581 l 0,62.1198 c 0,8.0206 6.4276,14.4482 14.4482,14.4482 l 334.612396,0 c 8.0204,0 14.5215,-6.4276 14.5215,-14.4482 l 0,-62.1198 c 0,-8.0205 -6.5011,-14.5581 -14.5215,-14.5581 z m 0,115.6587 c -8.0206,0 -14.4482,6.501 -14.4482,14.5215 l 0,62.1564 c 0,8.0206 6.4276,14.4482 14.4482,14.4482 l 334.612396,0 c 8.0204,0 14.5215,-6.4276 14.5215,-14.4482 l 0,-62.1564 c 0,-8.0205 -6.5011,-14.5215 -14.5215,-14.5215 z m 0,114.5219 c -8.0206,0 -14.4482,6.5378 -14.4482,14.5582 l 0,62.11978 c 0,8.0205 6.4276,14.4848 14.4482,14.4848 l 334.612396,0 c 8.0204,0 14.5215,-6.4643 14.5215,-14.4848 l 0,-62.11978 c 0,-8.0204 -6.5011,-14.5582 -14.5215,-14.5582 z" id="rect3044-174-4-7-5-0-4-2-1" style="fill:#000000;fill-opacity:1;stroke:none"/></g></svg>