<svg width="32" height="30" viewBox="0 0 32 30" fill="none" xmlns="http://www.w3.org/2000/svg">
<path d="M15.4902 25.4253C15.8046 25.2396 16.1952 25.2399 16.5092 25.4262L23.7598 29.728C25.1808 30.5717 26.9198 29.3244 26.5458 27.747L24.6306 19.6858C24.5437 19.3199 24.6694 18.9362 24.9559 18.6927L31.3512 13.2568C32.604 12.1929 31.9309 10.1753 30.2855 10.0469L21.8515 9.3446C21.4838 9.31398 21.1628 9.08335 21.0165 8.74462L17.7202 1.11428C17.0845 -0.371428 14.9155 -0.371428 14.2798 1.11428L10.9837 8.72698C10.8372 9.06533 10.5165 9.29562 10.149 9.32621L1.71455 10.0285C0.069104 10.1569 -0.604033 12.1746 0.648749 13.2384L7.04408 18.6743C7.3306 18.9179 7.45628 19.3016 7.36936 19.6674L5.4542 27.7287C5.08023 29.3061 6.81917 30.5534 8.24023 29.7096L15.4902 25.4253Z" fill="#74A2B2"/>
</svg>
