<?xml version="1.0" ?><svg fill="none" height="24" viewBox="0 0 24 24" width="24" xmlns="http://www.w3.org/2000/svg"><path clip-rule="evenodd" d="M10.8046 1.09198C11.4775 0.46222 12.5234 0.462219 13.1963 1.09198L15.5219 3.26861C15.5661 3.31001 15.6239 3.33394 15.6844 3.33594L18.868 3.44127C19.7891 3.47175 20.5287 4.21136 20.5592 5.13245L20.6645 8.31599C20.6665 8.37655 20.6904 8.43433 20.7318 8.47856L22.9085 10.8041C23.5382 11.477 23.5382 12.523 22.9085 13.1958L20.7318 15.5214C20.6904 15.5657 20.6665 15.6234 20.6645 15.684L20.5592 18.8675C20.5287 19.7886 19.7891 20.5282 18.868 20.5587L15.6844 20.664C15.6239 20.666 15.5661 20.69 15.5219 20.7314L13.1963 22.908C12.5234 23.5378 11.4775 23.5378 10.8046 22.908L8.47902 20.7314C8.43478 20.69 8.37701 20.666 8.31645 20.664L5.13291 20.5587C4.97915 20.5536 4.8295 20.5286 4.68692 20.4858C4.29022 20.3666 4.0652 19.9484 4.18435 19.5517C4.30349 19.155 4.72167 18.93 5.11838 19.0492C5.13808 19.0551 5.15942 19.0588 5.18251 19.0595L8.36605 19.1649C8.78996 19.1789 9.19436 19.3464 9.50403 19.6362L11.8296 21.8128C11.9257 21.9028 12.0752 21.9028 12.1713 21.8128L14.4969 19.6362C14.8065 19.3464 15.2109 19.1789 15.6348 19.1649L18.8184 19.0595C18.95 19.0552 19.0556 18.9495 19.06 18.8179L19.1653 15.6344C19.1793 15.2105 19.3468 14.8061 19.6367 14.4964L21.8133 12.1708C21.9033 12.0747 21.9033 11.9253 21.8133 11.8292L19.6367 9.50357C19.3468 9.1939 19.1793 8.78951 19.1653 8.3656L19.06 5.18205C19.0556 5.05047 18.95 4.94481 18.8184 4.94045L15.6348 4.83512C15.2109 4.8211 14.8065 4.65359 14.4969 4.36376L12.1713 2.18713C12.0752 2.09717 11.9257 2.09717 11.8296 2.18713L9.50403 4.36376C9.19436 4.65359 8.78996 4.8211 8.36605 4.83512L5.18251 4.94045C5.05092 4.94481 4.94527 5.05047 4.94091 5.18205L4.83558 8.3656C4.82156 8.78951 4.65405 9.1939 4.36422 9.50357L2.18759 11.8292C2.09763 11.9253 2.09763 12.0747 2.18759 12.1708L4.36422 14.4964C4.65405 14.8061 4.82156 15.2105 4.83558 15.6344C4.84928 16.0484 4.52478 16.3951 4.11079 16.4088C3.69681 16.4225 3.3501 16.098 3.3364 15.684C3.3344 15.6234 3.31047 15.5657 3.26906 15.5214L1.09244 13.1958C0.462677 12.523 0.462676 11.477 1.09244 10.8041L3.26906 8.47856C3.31047 8.43432 3.3344 8.37655 3.3364 8.31599L3.44173 5.13245C3.47221 4.21136 4.21181 3.47175 5.13291 3.44127L8.31645 3.33594C8.37701 3.33394 8.43478 3.31001 8.47902 3.26861L10.8046 1.09198Z" fill="black" fill-rule="evenodd"/><path clip-rule="evenodd" d="M10.7993 6.79626C12.2956 8.03385 13.25 9.905 13.25 12C13.25 14.095 12.2956 15.9661 10.7993 17.2037C11.0284 17.2342 11.2623 17.25 11.5 17.25C14.3995 17.25 16.75 14.8995 16.75 12C16.75 9.10051 14.3995 6.75 11.5 6.75C11.2623 6.75 11.0284 6.76576 10.7993 6.79626ZM8.68715 5.86241C9.54437 5.46897 10.4976 5.25 11.5 5.25C15.2279 5.25 18.25 8.27208 18.25 12C18.25 15.7279 15.2279 18.75 11.5 18.75C10.4976 18.75 9.54437 18.531 8.68715 18.1376C8.42076 18.0153 8.25 17.7491 8.25 17.456C8.25 17.1628 8.42076 16.8966 8.68715 16.7743C10.4962 15.944 11.75 14.1177 11.75 12C11.75 9.88234 10.4962 8.05595 8.68715 7.22568C8.42076 7.10341 8.25 6.83716 8.25 6.54404C8.25 6.25093 8.42076 5.98467 8.68715 5.86241Z" fill="black" fill-rule="evenodd"/></svg>