<?xml version="1.0" ?><svg viewBox="0 0 32 32" xmlns="http://www.w3.org/2000/svg"><title/><g data-name="Square Menu Alt" id="Square_Menu_Alt"><path d="M17.5,11h-3a2,2,0,0,1-2-2V6a2,2,0,0,1,2-2h3a2,2,0,0,1,2,2V9A2,2,0,0,1,17.5,11Z"/><path d="M9,11H6A2,2,0,0,1,4,9V6A2,2,0,0,1,6,4H9a2,2,0,0,1,2,2V9A2,2,0,0,1,9,11Z"/><path d="M26,11H23a2,2,0,0,1-2-2V6a2,2,0,0,1,2-2h3a2,2,0,0,1,2,2V9A2,2,0,0,1,26,11Z"/><path d="M17.5,28h-3a2,2,0,0,1-2-2V23a2,2,0,0,1,2-2h3a2,2,0,0,1,2,2v3A2,2,0,0,1,17.5,28Z"/><path d="M9,28H6a2,2,0,0,1-2-2V23a2,2,0,0,1,2-2H9a2,2,0,0,1,2,2v3A2,2,0,0,1,9,28Z"/><path d="M26,28H23a2,2,0,0,1-2-2V23a2,2,0,0,1,2-2h3a2,2,0,0,1,2,2v3A2,2,0,0,1,26,28Z"/><path d="M17.5,19.5h-3a2,2,0,0,1-2-2v-3a2,2,0,0,1,2-2h3a2,2,0,0,1,2,2v3A2,2,0,0,1,17.5,19.5Z"/><path d="M9,19.5H6a2,2,0,0,1-2-2v-3a2,2,0,0,1,2-2H9a2,2,0,0,1,2,2v3A2,2,0,0,1,9,19.5Z"/><path d="M26,19.5H23a2,2,0,0,1-2-2v-3a2,2,0,0,1,2-2h3a2,2,0,0,1,2,2v3A2,2,0,0,1,26,19.5Z"/></g></svg>